<svg width="813" height="250" viewBox="0 0 813 250" fill="none" xmlns="http://www.w3.org/2000/svg">
<g filter="url(#filter0_d_3487_42)">
<rect x="30.5307" y="36.8432" width="176.314" height="176.314" rx="88.1569" stroke="white" stroke-opacity="0.5" stroke-width="0.480419" shape-rendering="crispEdges"/>
<g filter="url(#filter1_d_3487_42)">
<mask id="path-3-inside-1_3487_42" fill="white">
<path d="M202.761 125C202.761 171.432 165.12 209.073 118.688 209.073C72.2552 209.073 34.6143 171.432 34.6143 125C34.6143 78.5676 72.2552 40.9267 118.688 40.9267C165.12 40.9267 202.761 78.5676 202.761 125ZM46.1211 125C46.1211 165.077 78.6102 197.567 118.688 197.567C158.765 197.567 191.254 165.077 191.254 125C191.254 84.9226 158.765 52.4335 118.688 52.4335C78.6102 52.4335 46.1211 84.9226 46.1211 125Z"/>
</mask>
<path d="M202.761 125C202.761 171.432 165.12 209.073 118.688 209.073C72.2552 209.073 34.6143 171.432 34.6143 125C34.6143 78.5676 72.2552 40.9267 118.688 40.9267C165.12 40.9267 202.761 78.5676 202.761 125ZM46.1211 125C46.1211 165.077 78.6102 197.567 118.688 197.567C158.765 197.567 191.254 165.077 191.254 125C191.254 84.9226 158.765 52.4335 118.688 52.4335C78.6102 52.4335 46.1211 84.9226 46.1211 125Z" fill="url(#paint0_linear_3487_42)"/>
<path d="M202.761 125C202.761 171.432 165.12 209.073 118.688 209.073C72.2552 209.073 34.6143 171.432 34.6143 125C34.6143 78.5676 72.2552 40.9267 118.688 40.9267C165.12 40.9267 202.761 78.5676 202.761 125ZM46.1211 125C46.1211 165.077 78.6102 197.567 118.688 197.567C158.765 197.567 191.254 165.077 191.254 125C191.254 84.9226 158.765 52.4335 118.688 52.4335C78.6102 52.4335 46.1211 84.9226 46.1211 125Z" stroke="white" stroke-opacity="0.5" stroke-width="0.960838" mask="url(#path-3-inside-1_3487_42)"/>
</g>
<path d="M118.276 58.1808C154.937 58.1808 184.656 87.9002 184.656 124.561C184.656 161.221 154.937 190.941 118.276 190.941C81.6162 190.94 51.8966 161.221 51.8965 124.561C51.8965 87.9004 81.6161 58.181 118.276 58.1808ZM118.664 97.8009C118.658 97.855 117.153 111.807 111.324 117.636C105.501 123.459 91.5707 124.966 91.4902 124.975C91.5673 124.983 105.5 126.491 111.324 132.315C117.146 138.136 118.655 152.06 118.664 152.149C118.674 152.059 120.183 138.136 126.004 132.315C131.83 126.489 145.771 124.982 145.838 124.975C145.767 124.967 131.829 123.461 126.004 117.636C120.175 111.807 118.67 97.8565 118.664 97.8009Z" fill="url(#paint1_linear_3487_42)"/>
</g>
<path d="M252.213 169V101.076H226.212V86.5292H293.792V101.076H267.791V169H252.213ZM321.658 170.718C315.434 170.718 309.974 169.325 305.278 166.537C300.582 163.75 296.916 159.913 294.282 155.026C291.686 150.1 290.387 144.45 290.387 138.073C290.387 131.621 291.724 125.951 294.396 121.064C297.069 116.139 300.754 112.301 305.45 109.552C310.146 106.803 315.549 105.429 321.658 105.429C327.881 105.429 333.341 106.822 338.037 109.61C342.772 112.397 346.456 116.253 349.091 121.178C351.725 126.066 353.042 131.697 353.042 138.073C353.042 144.488 351.706 150.158 349.033 155.083C346.399 159.97 342.714 163.807 337.98 166.595C333.284 169.344 327.843 170.718 321.658 170.718ZM321.658 156.171C326.659 156.171 330.382 154.491 332.826 151.131C335.307 147.733 336.548 143.381 336.548 138.073C336.548 132.575 335.288 128.185 332.768 124.901C330.286 121.618 326.583 119.976 321.658 119.976C318.259 119.976 315.472 120.739 313.296 122.267C311.12 123.794 309.497 125.913 308.428 128.624C307.397 131.335 306.882 134.484 306.882 138.073C306.882 143.61 308.122 148.02 310.604 151.303C313.124 154.549 316.809 156.171 321.658 156.171ZM395.991 170.718C389.843 170.718 384.708 169.286 380.585 166.423C376.461 163.559 373.349 159.665 371.249 154.739C369.188 149.814 368.157 144.259 368.157 138.073C368.157 131.888 369.188 126.333 371.249 121.408C373.311 116.482 376.346 112.588 380.355 109.724C384.364 106.861 389.309 105.429 395.189 105.429C401.107 105.429 406.261 106.841 410.652 109.667C415.043 112.492 418.441 116.368 420.846 121.293C423.29 126.18 424.512 131.774 424.512 138.073C424.512 144.259 423.309 149.814 420.904 154.739C418.536 159.665 415.215 163.559 410.938 166.423C406.662 169.286 401.68 170.718 395.991 170.718ZM365.522 196.49V107.147H379.267V149.528H381.215V196.49H365.522ZM393.471 156.859C396.831 156.859 399.58 156.019 401.718 154.339C403.856 152.659 405.44 150.406 406.471 147.581C407.502 144.717 408.018 141.548 408.018 138.073C408.018 134.637 407.483 131.506 406.414 128.681C405.345 125.817 403.684 123.546 401.431 121.866C399.217 120.148 396.372 119.288 392.898 119.288C389.653 119.288 387.018 120.071 384.994 121.637C383.009 123.202 381.558 125.397 380.642 128.223C379.725 131.048 379.267 134.332 379.267 138.073C379.267 141.815 379.725 145.099 380.642 147.924C381.558 150.75 383.047 152.945 385.109 154.51C387.209 156.076 389.996 156.859 393.471 156.859Z" fill="url(#paint2_linear_3487_42)"/>
<path d="M479.446 145.396C480.935 147.277 481.679 150.059 481.679 153.743C481.679 157.348 480.269 160.287 477.447 162.56C474.704 164.754 470.903 165.851 466.044 165.851C463.223 165.851 459.618 165.538 455.229 164.911C446.608 163.578 441.044 162.912 438.536 162.912C436.106 162.912 434.382 162.991 433.363 163.147C432.344 163.226 431.012 163.343 429.366 163.5L443.591 85.9123H469.336L457.58 150.569C458.599 150.725 459.579 150.804 460.519 150.804H463.458C470.041 150.804 475.37 149.001 479.446 145.396ZM513.056 157.034C510.627 162.912 505.532 165.851 497.774 165.851C493.777 165.851 490.524 164.48 488.016 161.737C485.9 159.307 484.842 156.878 484.842 154.448C484.842 148.1 486.292 138.735 489.192 126.352L493.542 103.546L517.406 101.195L510.235 138.343C508.902 144.142 508.236 148.061 508.236 150.098C508.236 154.566 509.843 156.878 513.056 157.034ZM495.658 87.2054C495.658 84.1489 496.912 81.7978 499.419 80.152C502.006 78.5062 505.141 77.6833 508.824 77.6833C512.507 77.6833 515.446 78.5062 517.641 80.152C519.914 81.7978 521.05 84.1489 521.05 87.2054C521.05 90.2619 519.796 92.5738 517.288 94.1413C514.859 95.7087 511.802 96.4924 508.119 96.4924C504.435 96.4924 501.418 95.7087 499.067 94.1413C496.794 92.5738 495.658 90.2619 495.658 87.2054ZM548.699 107.778C552.931 103.389 559.514 101.195 568.448 101.195C573.386 101.195 577.187 102.527 579.851 105.192C582.594 107.778 583.966 111.501 583.966 116.36C583.966 121.14 582.594 125.255 579.851 128.703C577.187 132.073 573.347 134.463 568.331 135.874C568.723 137.441 569.193 139.048 569.742 140.694L571.387 145.396C572.876 149.393 574.209 152.097 575.384 153.508C576.56 154.918 577.931 155.859 579.499 156.329C578.637 159.542 576.638 162.011 573.503 163.735C570.995 165.146 568.017 165.851 564.569 165.851C554.459 165.851 548.738 158.053 547.406 142.457C547.171 140.263 547.053 138.068 547.053 135.874C550.972 134.777 554.302 132.387 557.045 128.703C559.788 125.02 561.16 121.023 561.16 116.712C561.16 112.402 559.632 110.247 556.575 110.247C554.381 110.247 552.421 111.461 550.697 113.891C548.973 116.32 547.719 119.612 546.935 123.766L539.177 163.5L515.43 165.851L531.888 81.21L555.517 78.8588L552.813 92.8482C551.638 99.4314 550.266 104.408 548.699 107.778ZM632.225 143.633C634.184 144.965 635.164 147.12 635.164 150.098C635.164 152.998 634.419 155.389 632.93 157.269C631.441 159.15 629.482 160.718 627.052 161.972C622.037 164.558 616.825 165.851 611.417 165.851C606.01 165.851 601.699 165.263 598.486 164.088C595.351 162.912 592.726 161.227 590.61 159.033C586.456 154.879 584.379 149.001 584.379 141.399C584.379 129.565 587.592 120.043 594.019 112.833C600.916 105.074 610.359 101.195 622.35 101.195C629.795 101.195 635.36 102.762 639.043 105.897C641.786 108.248 643.158 111.344 643.158 115.184C643.158 128.977 631.245 135.874 607.42 135.874C607.107 137.912 606.95 139.793 606.95 141.517C606.95 145.122 607.734 147.63 609.301 149.04C610.947 150.373 613.259 151.039 616.237 151.039C619.215 151.039 622.272 150.373 625.407 149.04C628.62 147.63 630.893 145.827 632.225 143.633ZM608.243 130.819C613.808 130.819 618.197 129.095 621.41 125.647C624.623 122.355 626.23 118.084 626.23 112.833C626.23 111.03 625.877 109.659 625.172 108.718C624.545 107.7 623.565 107.19 622.233 107.19C620.9 107.19 619.646 107.464 618.471 108.013C617.374 108.483 616.237 109.58 615.062 111.305C612.162 115.223 609.889 121.728 608.243 130.819Z" fill="url(#paint3_linear_3487_42)"/>
<path d="M446.834 201.629L441.601 186.437H443.216L447.847 199.867L452.51 186.437H454.124L448.892 201.629H446.834ZM459.272 201.946C458.16 201.946 457.197 201.699 456.381 201.207C455.572 200.715 454.943 200.022 454.492 199.129C454.042 198.236 453.817 197.188 453.817 195.985C453.817 194.74 454.039 193.664 454.482 192.757C454.925 191.849 455.547 191.149 456.349 190.657C457.158 190.165 458.111 189.919 459.208 189.919C460.334 189.919 461.294 190.179 462.088 190.699C462.883 191.213 463.485 191.951 463.892 192.915C464.3 193.878 464.487 195.028 464.452 196.365H462.869V195.816C462.841 194.339 462.521 193.224 461.909 192.472C461.304 191.719 460.418 191.343 459.25 191.343C458.027 191.343 457.088 191.74 456.434 192.535C455.787 193.33 455.463 194.462 455.463 195.932C455.463 197.367 455.787 198.482 456.434 199.277C457.088 200.064 458.013 200.458 459.208 200.458C460.024 200.458 460.735 200.272 461.339 199.899C461.951 199.519 462.433 198.974 462.785 198.264L464.23 198.823C463.78 199.815 463.115 200.585 462.236 201.133C461.364 201.675 460.376 201.946 459.272 201.946ZM454.914 196.365V195.067H463.618V196.365H454.914ZM466.793 201.629V190.235H468.185V192.978L467.911 192.619C468.038 192.282 468.203 191.972 468.407 191.691C468.611 191.403 468.833 191.167 469.072 190.984C469.367 190.724 469.712 190.527 470.106 190.393C470.499 190.253 470.897 190.172 471.298 190.151C471.699 190.123 472.064 190.151 472.395 190.235V191.691C471.98 191.586 471.526 191.561 471.034 191.617C470.542 191.673 470.088 191.87 469.673 192.208C469.293 192.503 469.008 192.859 468.818 193.274C468.629 193.681 468.502 194.118 468.439 194.582C468.375 195.039 468.344 195.493 468.344 195.943V201.629H466.793ZM474.607 188.072V186.332H476.158V188.072H474.607ZM474.607 201.629V190.235H476.158V201.629H474.607ZM480.45 201.629V189.391C480.45 189.096 480.464 188.804 480.492 188.515C480.527 188.227 480.594 187.953 480.693 187.693C480.791 187.425 480.946 187.179 481.157 186.954C481.389 186.701 481.642 186.518 481.916 186.405C482.191 186.286 482.475 186.209 482.771 186.173C483.073 186.138 483.369 186.121 483.657 186.121H485.113V187.429H483.763C483.172 187.429 482.729 187.573 482.433 187.861C482.145 188.15 482.001 188.603 482.001 189.222V201.629H480.45ZM478.477 191.564V190.235H485.113V191.564H478.477ZM488.426 206.693L490.63 200.711L490.662 202.484L485.672 190.235H487.318L491.411 200.479H490.736L494.513 190.235H496.095L489.976 206.693H488.426ZM503.777 206.693L505.982 200.711L506.013 202.484L501.023 190.235H502.669L506.762 200.479H506.087L509.864 190.235H511.446L505.327 206.693H503.777ZM517.625 201.946C516.492 201.946 515.525 201.689 514.724 201.176C513.922 200.662 513.306 199.952 512.877 199.044C512.448 198.137 512.234 197.096 512.234 195.922C512.234 194.726 512.452 193.678 512.888 192.778C513.324 191.877 513.943 191.178 514.745 190.678C515.553 190.172 516.514 189.919 517.625 189.919C518.764 189.919 519.735 190.175 520.537 190.689C521.345 191.195 521.961 191.902 522.383 192.809C522.812 193.71 523.026 194.747 523.026 195.922C523.026 197.117 522.812 198.169 522.383 199.076C521.954 199.976 521.335 200.68 520.526 201.186C519.717 201.692 518.75 201.946 517.625 201.946ZM517.625 200.458C518.891 200.458 519.833 200.04 520.452 199.203C521.071 198.359 521.381 197.265 521.381 195.922C521.381 194.543 521.068 193.446 520.442 192.63C519.823 191.814 518.884 191.406 517.625 191.406C516.774 191.406 516.07 191.6 515.515 191.986C514.966 192.366 514.555 192.897 514.28 193.58C514.013 194.255 513.88 195.035 513.88 195.922C513.88 197.293 514.196 198.394 514.829 199.224C515.462 200.047 516.394 200.458 517.625 200.458ZM529.711 201.914C529.029 201.914 528.431 201.809 527.917 201.598C527.411 201.387 526.978 201.102 526.62 200.743C526.268 200.384 525.983 199.976 525.765 199.519C525.547 199.055 525.389 198.566 525.29 198.053C525.192 197.532 525.143 197.015 525.143 196.502V190.235H526.704V196.048C526.704 196.674 526.764 197.254 526.883 197.789C527.003 198.323 527.193 198.791 527.453 199.192C527.72 199.586 528.061 199.892 528.476 200.11C528.898 200.328 529.408 200.437 530.006 200.437C530.555 200.437 531.037 200.342 531.452 200.152C531.874 199.962 532.225 199.691 532.507 199.34C532.795 198.981 533.013 198.549 533.161 198.042C533.308 197.529 533.382 196.952 533.382 196.312L534.479 196.555C534.479 197.722 534.275 198.703 533.867 199.498C533.46 200.293 532.897 200.894 532.179 201.302C531.462 201.71 530.639 201.914 529.711 201.914ZM533.54 201.629V198.823H533.382V190.235H534.933V201.629H533.54ZM537.882 201.629V190.235H539.274V192.978L539 192.619C539.127 192.282 539.292 191.972 539.496 191.691C539.7 191.403 539.921 191.167 540.161 190.984C540.456 190.724 540.801 190.527 541.194 190.393C541.588 190.253 541.986 190.172 542.387 190.151C542.788 190.123 543.153 190.151 543.484 190.235V191.691C543.069 191.586 542.615 191.561 542.123 191.617C541.631 191.673 541.177 191.87 540.762 192.208C540.382 192.503 540.097 192.859 539.907 193.274C539.717 193.681 539.591 194.118 539.528 194.582C539.464 195.039 539.433 195.493 539.433 195.943V201.629H537.882ZM552.79 201.629L548.654 190.235H550.226L553.592 199.604L556.936 190.235H558.529L554.394 201.629H552.79ZM563.045 201.946C562.187 201.946 561.466 201.791 560.883 201.481C560.306 201.172 559.873 200.761 559.585 200.247C559.297 199.734 559.152 199.175 559.152 198.57C559.152 197.951 559.275 197.423 559.522 196.987C559.775 196.544 560.116 196.182 560.545 195.9C560.981 195.619 561.484 195.405 562.054 195.257C562.63 195.116 563.267 194.993 563.963 194.888C564.667 194.775 565.352 194.68 566.02 194.603C566.696 194.518 567.286 194.438 567.793 194.36L567.244 194.698C567.265 193.572 567.047 192.739 566.59 192.197C566.133 191.656 565.338 191.385 564.206 191.385C563.425 191.385 562.764 191.561 562.222 191.913C561.688 192.264 561.312 192.82 561.094 193.58L559.585 193.136C559.845 192.117 560.369 191.325 561.157 190.763C561.945 190.2 562.968 189.919 564.227 189.919C565.268 189.919 566.151 190.116 566.875 190.509C567.606 190.896 568.123 191.459 568.426 192.197C568.566 192.528 568.658 192.897 568.7 193.305C568.742 193.713 568.763 194.128 568.763 194.55V201.629H567.381V198.77L567.782 198.939C567.395 199.917 566.794 200.662 565.978 201.176C565.162 201.689 564.185 201.946 563.045 201.946ZM563.225 200.606C563.949 200.606 564.582 200.476 565.124 200.215C565.665 199.955 566.101 199.6 566.432 199.15C566.762 198.693 566.977 198.179 567.075 197.61C567.16 197.244 567.206 196.843 567.213 196.407C567.22 195.964 567.223 195.633 567.223 195.415L567.814 195.721C567.286 195.791 566.713 195.862 566.094 195.932C565.482 196.002 564.878 196.083 564.28 196.175C563.689 196.266 563.154 196.375 562.676 196.502C562.353 196.593 562.04 196.723 561.737 196.892C561.435 197.054 561.185 197.272 560.988 197.546C560.798 197.821 560.703 198.162 560.703 198.57C560.703 198.9 560.784 199.22 560.946 199.53C561.115 199.839 561.382 200.096 561.748 200.3C562.12 200.504 562.613 200.606 563.225 200.606ZM571.721 201.629V186.121H573.272V201.629H571.721ZM580.792 201.914C580.11 201.914 579.512 201.809 578.998 201.598C578.492 201.387 578.059 201.102 577.701 200.743C577.349 200.384 577.064 199.976 576.846 199.519C576.628 199.055 576.47 198.566 576.371 198.053C576.273 197.532 576.224 197.015 576.224 196.502V190.235H577.785V196.048C577.785 196.674 577.845 197.254 577.964 197.789C578.084 198.323 578.274 198.791 578.534 199.192C578.801 199.586 579.142 199.892 579.557 200.11C579.979 200.328 580.489 200.437 581.087 200.437C581.636 200.437 582.118 200.342 582.532 200.152C582.954 199.962 583.306 199.691 583.587 199.34C583.876 198.981 584.094 198.549 584.242 198.042C584.389 197.529 584.463 196.952 584.463 196.312L585.56 196.555C585.56 197.722 585.356 198.703 584.948 199.498C584.541 200.293 583.978 200.894 583.26 201.302C582.543 201.71 581.72 201.914 580.792 201.914ZM584.621 201.629V198.823H584.463V190.235H586.014V201.629H584.621ZM593.784 201.946C592.673 201.946 591.709 201.699 590.893 201.207C590.085 200.715 589.455 200.022 589.005 199.129C588.555 198.236 588.33 197.188 588.33 195.985C588.33 194.74 588.551 193.664 588.994 192.757C589.437 191.849 590.06 191.149 590.862 190.657C591.671 190.165 592.624 189.919 593.721 189.919C594.846 189.919 595.806 190.179 596.601 190.699C597.396 191.213 597.997 191.951 598.405 192.915C598.813 193.878 598.999 195.028 598.964 196.365H597.382V195.816C597.353 194.339 597.033 193.224 596.422 192.472C595.817 191.719 594.931 191.343 593.763 191.343C592.539 191.343 591.6 191.74 590.946 192.535C590.299 193.33 589.976 194.462 589.976 195.932C589.976 197.367 590.299 198.482 590.946 199.277C591.6 200.064 592.525 200.458 593.721 200.458C594.537 200.458 595.247 200.272 595.852 199.899C596.464 199.519 596.946 198.974 597.297 198.264L598.743 198.823C598.292 199.815 597.628 200.585 596.749 201.133C595.876 201.675 594.888 201.946 593.784 201.946ZM589.427 196.365V195.067H598.131V196.365H589.427Z" fill="url(#paint4_linear_3487_42)"/>
<defs>
<filter id="filter0_d_3487_42" x="23.7846" y="30.0971" width="189.806" height="189.806" filterUnits="userSpaceOnUse" color-interpolation-filters="sRGB">
<feFlood flood-opacity="0" result="BackgroundImageFix"/>
<feColorMatrix in="SourceAlpha" type="matrix" values="0 0 0 0 0 0 0 0 0 0 0 0 0 0 0 0 0 0 127 0" result="hardAlpha"/>
<feOffset/>
<feGaussianBlur stdDeviation="3.25292"/>
<feComposite in2="hardAlpha" operator="out"/>
<feColorMatrix type="matrix" values="0 0 0 0 1 0 0 0 0 1 0 0 0 0 1 0 0 0 1 0"/>
<feBlend mode="normal" in2="BackgroundImageFix" result="effect1_dropShadow_3487_42"/>
<feBlend mode="normal" in="SourceGraphic" in2="effect1_dropShadow_3487_42" result="shape"/>
</filter>
<filter id="filter1_d_3487_42" x="31.0976" y="40.9267" width="175.18" height="175.18" filterUnits="userSpaceOnUse" color-interpolation-filters="sRGB">
<feFlood flood-opacity="0" result="BackgroundImageFix"/>
<feColorMatrix in="SourceAlpha" type="matrix" values="0 0 0 0 0 0 0 0 0 0 0 0 0 0 0 0 0 0 127 0" result="hardAlpha"/>
<feOffset dy="3.51667"/>
<feGaussianBlur stdDeviation="1.75833"/>
<feComposite in2="hardAlpha" operator="out"/>
<feColorMatrix type="matrix" values="0 0 0 0 0 0 0 0 0 0 0 0 0 0 0 0 0 0 0.25 0"/>
<feBlend mode="normal" in2="BackgroundImageFix" result="effect1_dropShadow_3487_42"/>
<feBlend mode="normal" in="SourceGraphic" in2="effect1_dropShadow_3487_42" result="shape"/>
</filter>
<linearGradient id="paint0_linear_3487_42" x1="118.688" y1="40.9267" x2="118.688" y2="209.073" gradientUnits="userSpaceOnUse">
<stop stop-color="#4006C7"/>
<stop offset="1" stop-color="#2B4DEC"/>
</linearGradient>
<linearGradient id="paint1_linear_3487_42" x1="118.276" y1="58.1808" x2="118.276" y2="190.941" gradientUnits="userSpaceOnUse">
<stop stop-color="#4006C7"/>
<stop offset="1" stop-color="#2B4DEC"/>
</linearGradient>
<linearGradient id="paint2_linear_3487_42" x1="327.567" y1="47.0001" x2="327.567" y2="203" gradientUnits="userSpaceOnUse">
<stop stop-color="#4006C7"/>
<stop offset="1" stop-color="#2B4DEC"/>
</linearGradient>
<linearGradient id="paint3_linear_3487_42" x1="536.808" y1="56.5" x2="536.808" y2="193.5" gradientUnits="userSpaceOnUse">
<stop stop-color="#4006C7"/>
<stop offset="1" stop-color="#2B4DEC"/>
</linearGradient>
<linearGradient id="paint4_linear_3487_42" x1="520.996" y1="178.629" x2="520.996" y2="207.629" gradientUnits="userSpaceOnUse">
<stop stop-color="#4006C7"/>
<stop offset="1" stop-color="#2B4DEC"/>
</linearGradient>
</defs>
</svg>
